<svg width="60" height="48" xmlns="http://www.w3.org/2000/svg" xmlns:xlink="http://www.w3.org/1999/xlink" xml:space="preserve" overflow="hidden"><g transform="translate(-209 -140)"><g><g><g><g><path d="M36.7445 1.5 36.7445 1.5C37.5236 4.24518 39.4465 6.52225 42.0225 7.75 39.4465 8.97775 37.5236 11.2548 36.7445 14 35.965 11.255 34.0423 8.97805 31.4665 7.75 34.0423 6.52195 35.965 4.245 36.7445 1.5Z" fill="#000000" fill-rule="nonzero" fill-opacity="1" transform="matrix(1.22917 0 0 1 210 140)"/><path d="M43.7555 12 43.7555 12C44.1606 13.4275 45.1605 14.6116 46.5 15.25 45.1605 15.8884 44.1606 17.0725 43.7555 18.5 43.3504 17.0725 42.3505 15.8884 41.011 15.25 42.3505 14.6116 43.3504 13.4275 43.7555 12Z" fill="#000000" fill-rule="nonzero" fill-opacity="1" transform="matrix(1.22917 0 0 1 210 140)"/><path d="M6.9425 7 6.9425 7C7.5348 9.0863 8.99625 10.8168 10.954 11.75 8.99625 12.6832 7.5348 14.4137 6.9425 16.5 6.3504 14.4137 4.88908 12.6832 2.9315 11.75 4.88908 10.8168 6.3504 9.08625 6.9425 7Z" fill="#000000" fill-rule="nonzero" fill-opacity="1" transform="matrix(1.22917 0 0 1 210 140)"/><path d="M23.987 5.9965 23.987 5.9965 2.9985 25.9855 5.247 27.8845 23.987 10.0945 42.7265 27.8845 44.9755 25.9855 23.987 5.9965Z" fill="#000000" fill-rule="nonzero" fill-opacity="1" transform="matrix(1.22917 0 0 1 210 140)"/><path d="M8.995 27.135 8.995 41.977 20.9885 41.977 20.9885 29.484 26.985 29.484 26.985 41.977 38.9785 41.977 38.9785 27.135 23.987 12.893 8.995 27.135Z" fill="#000000" fill-rule="nonzero" fill-opacity="1" transform="matrix(1.22917 0 0 1 210 140)"/></g></g></g></g></g></svg>