<svg width="56" height="52" xmlns="http://www.w3.org/2000/svg" xmlns:xlink="http://www.w3.org/1999/xlink" xml:space="preserve" overflow="hidden"><g transform="translate(-204 -72)"><g><g><g><g><path d="M44.9042 21.1792C44.7417 21.1792 44.5792 21.1792 44.4167 21.1792L43.0083 17.3875C46.2583 15.5458 47.3958 11.4292 45.6083 8.17917 43.7667 4.92917 39.65 3.79167 36.4 5.57917 34.8292 6.44583 33.6375 7.9625 33.2042 9.69583L28.1667 9.15417C27.7875 6.77083 25.5667 5.09167 23.1833 5.47083 21.0167 5.79583 19.4458 7.6375 19.4458 9.80417 19.4458 10.5625 19.6625 11.3208 20.0417 12.025L13.975 17.9833C12.8375 17.1167 11.4292 16.6292 9.96667 16.6292 6.22917 16.6292 3.19583 19.6625 3.19583 23.4 3.19583 27.1375 6.22917 30.1708 9.96667 30.1708L11.3208 38.2958C9.1 39.2708 8.07083 41.8708 9.04583 44.0917 10.0208 46.3125 12.6208 47.3417 14.8417 46.3667 16.9 45.5 17.9292 43.225 17.3333 41.0583L22.1 38.5667C25.1875 41.9792 30.4958 42.25 33.9625 39.1625 35.6958 37.5917 36.725 35.3167 36.725 32.9875 36.725 32.3917 36.6708 31.7417 36.5083 31.1458L41.7625 28.4375C43.3875 30.2792 46.15 30.4417 47.9917 28.8167 49.8333 27.1917 49.9958 24.4292 48.3708 22.5875 47.3417 21.7208 46.15 21.1792 44.9042 21.1792ZM44.9042 22.8042C45.6083 22.8042 46.15 23.3458 46.15 24.05 46.15 24.7542 45.6083 25.2958 44.9042 25.2958 44.2 25.2958 43.6583 24.7542 43.6583 24.05 43.6583 24.05 43.6583 24.05 43.6583 24.05 43.6583 23.3458 44.2 22.8042 44.9042 22.8042ZM39.7042 7.36667C40.7333 7.36667 41.6 8.23333 41.6 9.2625 41.6 10.2917 40.7333 11.1583 39.7042 11.1583 38.675 11.1583 37.8083 10.2917 37.8083 9.2625 37.8083 9.2625 37.8083 9.2625 37.8083 9.2625 37.8083 8.23333 38.6208 7.36667 39.7042 7.36667ZM35.8583 13.5417C35.8583 13.2708 36.0208 12.9458 36.2375 12.7833 36.7792 12.4042 37.4292 12.0792 38.0792 11.9167 38.5667 11.7542 39.1083 11.7 39.65 11.7 40.1917 11.7 40.7333 11.8083 41.2208 11.9167 41.8708 12.0792 42.5208 12.4042 43.0625 12.8375 43.2792 13 43.4417 13.325 43.4417 13.5958L43.4417 15.0583 35.8583 15.0583 35.8583 13.5417ZM23.7792 7.04167C24.4833 7.04167 25.025 7.58333 25.025 8.2875 25.025 8.99167 24.4833 9.53333 23.7792 9.53333 23.075 9.53333 22.5333 8.99167 22.5333 8.2875 22.5333 8.2875 22.5333 8.2875 22.5333 8.2875 22.5333 7.6375 23.075 7.04167 23.7792 7.04167ZM21.2333 11.1042C21.2333 10.8875 21.3417 10.725 21.5042 10.6167 21.8833 10.3458 22.3167 10.1833 22.75 10.075 23.075 9.96667 23.4542 9.9125 23.7792 9.9125 24.1042 9.9125 24.4833 9.96667 24.8083 10.075 25.2417 10.1833 25.6208 10.4 26 10.6708 26.1625 10.7792 26.2708 10.9958 26.2708 11.1583L26.2708 12.1333 21.2875 12.1333 21.2875 11.1042ZM9.85833 19.2833C10.8875 19.2833 11.7542 20.15 11.7542 21.1792 11.7542 22.2083 10.8875 23.075 9.85833 23.075 8.82917 23.075 7.9625 22.2083 7.9625 21.1792 7.9625 21.1792 7.9625 21.1792 7.9625 21.1792 8.01667 20.15 8.82917 19.2833 9.85833 19.2833ZM6.06667 26.9208 6.06667 25.4583C6.06667 25.1875 6.22917 24.8625 6.44583 24.7 6.9875 24.3208 7.6375 23.9958 8.2875 23.8333 8.775 23.6708 9.31667 23.6167 9.85833 23.6167 10.4 23.6167 10.9417 23.725 11.4292 23.8333 12.0792 23.9958 12.7292 24.3208 13.2708 24.7542 13.4875 24.9167 13.65 25.2417 13.65 25.5125L13.65 26.975 6.06667 26.9208ZM15.4375 44.5792 10.4 44.5792 10.4 43.6042C10.4 43.3875 10.5083 43.225 10.6708 43.1167 11.05 42.8458 11.4833 42.6292 11.9167 42.5208 12.2417 42.4125 12.6208 42.3583 12.9458 42.3583 13.2708 42.3583 13.65 42.4125 13.975 42.5208 14.4083 42.6292 14.7875 42.8458 15.1667 43.1167 15.3292 43.225 15.4375 43.4417 15.4375 43.6042L15.4375 44.5792ZM11.6458 40.7875C11.6458 40.0833 12.1875 39.5417 12.8917 39.5417 13.5958 39.5417 14.1375 40.0833 14.1375 40.7875 14.1375 41.4917 13.5958 42.0333 12.8917 42.0333 12.2417 42.0875 11.7 41.4917 11.6458 40.7875ZM15.9792 39.2708C15.275 38.5667 14.3 38.1333 13.325 38.025L11.9708 29.9C13.2708 29.4667 14.4083 28.6542 15.2208 27.5708L20.2583 30.225C19.4458 32.3917 19.6083 34.8292 20.6917 36.8875L15.9792 39.2708ZM21.2875 28.2208 16.3042 25.6208C16.5208 24.9167 16.6292 24.2125 16.6292 23.4542 16.6292 22.0458 16.1958 20.6917 15.3833 19.5542L21.45 13.65C23.5083 14.8958 26.2167 14.3 27.4625 12.2417 27.625 11.9708 27.7333 11.7 27.8417 11.4292L32.8792 11.9708C32.9875 13.9208 33.9625 15.7625 35.5333 16.9542L31.0917 25.2417C27.5708 23.8333 23.5083 25.0792 21.2875 28.2208ZM30.4958 30.225C30.4958 31.525 29.4125 32.5542 28.1125 32.5542 26.8125 32.5542 25.7833 31.525 25.7833 30.225 25.7833 28.925 26.8125 27.8958 28.1125 27.8958 28.1125 27.8958 28.1125 27.8958 28.1667 27.8958 29.4667 27.8958 30.4958 28.925 30.4958 30.225ZM32.825 37.3208 23.4542 37.3208 23.4542 35.5333C23.4542 35.1542 23.6167 34.8292 23.9417 34.6125 24.6458 34.125 25.4042 33.7458 26.2167 33.475 26.8667 33.3125 27.5167 33.2042 28.1667 33.2042 28.8167 33.2042 29.4667 33.3125 30.1167 33.475 30.9292 33.6917 31.7417 34.0708 32.3917 34.6125 32.6625 34.8292 32.8792 35.2083 32.8792 35.5333L32.825 37.3208ZM40.5167 25.6208C40.5167 25.9458 40.5708 26.2708 40.6792 26.5958L35.6958 29.1958C35.1 28.0042 34.1792 27.0292 33.0958 26.2708L37.5375 17.9833C38.2417 18.2542 39 18.3625 39.7583 18.3625 40.1917 18.3625 40.625 18.3083 41.0583 18.2542L42.4667 22.0458C41.1667 22.8042 40.4625 24.1583 40.5167 25.6208ZM47.3958 27.7875 42.3583 27.7875 42.3583 26.8125C42.3583 26.5958 42.4667 26.4333 42.6292 26.325 43.0083 26.0542 43.4417 25.8375 43.875 25.7292 44.2 25.6208 44.5792 25.5667 44.9042 25.5667 45.2292 25.5667 45.6083 25.6208 45.9333 25.7292 46.3667 25.8375 46.7458 26.0542 47.125 26.325 47.2875 26.4333 47.3958 26.65 47.3958 26.8125L47.3958 27.7875Z" fill="#FFFFFF" fill-rule="nonzero" fill-opacity="1" transform="matrix(1.05769 0 0 1 205 72)"/></g></g></g></g></g></svg>