<svg width="50" height="46" xmlns="http://www.w3.org/2000/svg" xmlns:xlink="http://www.w3.org/1999/xlink" xml:space="preserve" overflow="hidden"><g transform="translate(-328 -52)"><g><g><g><g><path d="M37.5 34.4531 37.5 21.2812 38.4844 25.3594C38.5781 25.7344 38.9531 26.0625 39.375 26.0625 39.8906 26.0625 40.3125 25.6406 40.3125 25.125 40.3125 25.0312 40.2656 24.9375 40.2656 24.8906L38.9531 19.3125C38.9062 19.125 38.8125 18.9375 38.6719 18.7969 38.1094 18.3281 37.4531 18 36.7031 17.7656 36.1875 17.6719 35.6719 17.5781 35.1562 17.5781 34.6406 17.5781 34.125 17.6719 33.6094 17.8125 32.8594 18 32.2031 18.375 31.6406 18.8438 31.5 18.9844 31.4062 19.1719 31.3594 19.3594L30.0469 24.9375C30.0469 24.9844 30 25.0781 30 25.1719 30 25.6875 30.4219 26.1094 30.9375 26.1094 31.3594 26.1094 31.7344 25.7812 31.8281 25.4062L32.8125 21.3281 32.8125 34.4531 29.0625 34.4531 29.0625 26.9531 24.8438 26.9531 24.8438 19.4531 24.8438 13.2656 28.9219 6.32812C29.2031 5.85938 29.0156 5.29688 28.5938 5.0625 28.125 4.78125 27.5625 4.96875 27.3281 5.39062L24.375 10.4062C24.2812 10.3594 24.1875 10.3125 24.0469 10.3125 23.5312 10.1719 23.0156 10.0781 22.5 10.0781 21.9844 10.0781 21.4688 10.1719 20.9531 10.3125 20.8594 10.3594 20.7656 10.3594 20.625 10.4062L17.6719 5.39062C17.3906 4.92188 16.8281 4.78125 16.4062 5.0625 15.9375 5.34375 15.7969 5.90625 16.0781 6.32812L20.1562 13.2656 20.1562 19.4531 20.1562 26.9531 15.9375 26.9531 15.9375 30.7031 12.6562 30.7031 12.6562 17.5312 13.6406 21.6094C13.7344 21.9844 14.1094 22.3125 14.5312 22.3125 15.0469 22.3125 15.4688 21.8906 15.4688 21.375 15.4688 21.2812 15.4219 21.1875 15.4219 21.1406L14.1094 15.5625C14.0625 15.375 13.9688 15.1875 13.8281 15.0469 13.2656 14.5781 12.6094 14.25 11.8594 14.0156 11.3438 13.9219 10.8281 13.8281 10.3125 13.8281 9.79688 13.8281 9.28125 13.9219 8.76562 14.0625 8.01562 14.25 7.35938 14.625 6.79688 15.0938 6.65625 15.2344 6.5625 15.4219 6.51562 15.6094L5.20312 21.1875C5.20312 21.2344 5.15625 21.3281 5.15625 21.4219 5.15625 21.9375 5.57812 22.3594 6.09375 22.3594 6.51562 22.3594 6.89062 22.0312 6.98438 21.6562L7.96875 17.5781 7.96875 30.7031 3.75 30.7031 3.75 40.0781 41.25 40.0781 41.25 34.4531 37.5 34.4531ZM10.7812 30.7031 9.84375 30.7031 9.84375 22.2656 10.7812 22.2656 10.7812 30.7031ZM22.9688 26.9531 22.0312 26.9531 22.0312 18.5156 22.9688 18.5156 22.9688 26.9531ZM35.625 34.4531 34.6875 34.4531 34.6875 26.0156 35.625 26.0156 35.625 34.4531Z" fill="#FFFFFF" fill-rule="nonzero" fill-opacity="1" transform="matrix(1.08889 0 0 1 329 53)"/><path d="M12.1875 11.4844C12.1875 12.5199 11.348 13.3594 10.3125 13.3594 9.27697 13.3594 8.4375 12.5199 8.4375 11.4844 8.4375 10.4488 9.27697 9.60938 10.3125 9.60938 11.348 9.60938 12.1875 10.4488 12.1875 11.4844Z" fill="#FFFFFF" fill-rule="nonzero" fill-opacity="1" transform="matrix(1.08889 0 0 1 329 53)"/><path d="M37.0312 15.2344C37.0312 16.2699 36.1918 17.1094 35.1562 17.1094 34.1207 17.1094 33.2812 16.2699 33.2812 15.2344 33.2812 14.1988 34.1207 13.3594 35.1562 13.3594 36.1918 13.3594 37.0312 14.1988 37.0312 15.2344Z" fill="#FFFFFF" fill-rule="nonzero" fill-opacity="1" transform="matrix(1.08889 0 0 1 329 53)"/><path d="M24.375 7.73438C24.375 8.76991 23.5355 9.60938 22.5 9.60938 21.4645 9.60938 20.625 8.76991 20.625 7.73438 20.625 6.69884 21.4645 5.85938 22.5 5.85938 23.5355 5.85938 24.375 6.69884 24.375 7.73438Z" fill="#FFFFFF" fill-rule="nonzero" fill-opacity="1" transform="matrix(1.08889 0 0 1 329 53)"/></g></g></g></g></g></svg>