<svg width="58" height="58" xmlns="http://www.w3.org/2000/svg" xmlns:xlink="http://www.w3.org/1999/xlink" xml:space="preserve" overflow="hidden"><g transform="translate(-440 -58)"><g><g><g><g><path d="M492.062 101.156 490.281 102.938 449.312 102.938 446.938 100.562 446.938 88.6875 449.312 86.3125 490.281 86.3125 492.062 88.0938 492.062 101.156ZM443.375 82.75 443.375 106.5 495.625 106.5 495.625 82.75 443.375 82.75Z" fill="#FFFFFF" fill-rule="nonzero" fill-opacity="1"/><path d="M474.25 94.625C474.25 97.9042 472.123 100.562 469.5 100.562 466.877 100.562 464.75 97.9042 464.75 94.625 464.75 91.3458 466.877 88.6875 469.5 88.6875 472.123 88.6875 474.25 91.3458 474.25 94.625Z" fill="#FFFFFF" fill-rule="nonzero" fill-opacity="1"/><path d="M456.438 94.625C456.438 95.6088 455.64 96.4062 454.656 96.4062 453.672 96.4062 452.875 95.6088 452.875 94.625 452.875 93.6412 453.672 92.8438 454.656 92.8438 455.64 92.8438 456.438 93.6412 456.438 94.625Z" fill="#FFFFFF" fill-rule="nonzero" fill-opacity="1"/><path d="M486.125 94.625C486.125 95.6088 485.328 96.4062 484.344 96.4062 483.36 96.4062 482.562 95.6088 482.562 94.625 482.562 93.6412 483.36 92.8438 484.344 92.8438 485.328 92.8438 486.125 93.6412 486.125 94.625Z" fill="#FFFFFF" fill-rule="nonzero" fill-opacity="1"/><path d="M480.128 71.2906 481.019 73.5469 484.581 72.8344 482.087 66.6 450.144 79.6625 468.431 76.0406Z" fill="#FFFFFF" fill-rule="nonzero" fill-opacity="1"/><path d="M477.041 80.375 486.422 78.5344 486.837 80.375 490.459 80.375 489.272 74.3187 458.812 80.375Z" fill="#FFFFFF" fill-rule="nonzero" fill-opacity="1"/></g></g></g></g></g></svg>