<svg width="55" height="51" xmlns="http://www.w3.org/2000/svg" xmlns:xlink="http://www.w3.org/1999/xlink" xml:space="preserve" overflow="hidden"><g transform="translate(-557 -53)"><g><g><g><g><path d="M23.6458 28.75 24.4792 31.3021 24.0104 31.7708 21.4583 30.9375C21.4583 30.9375 21.4583 30.9375 21.4062 30.8854 20.8333 30.3125 20.8333 29.375 21.4583 28.8021 22.0833 28.2292 23.0208 28.1771 23.6458 28.75ZM6.14583 17.2917 20.8333 31.9792 26.5625 33.8542 24.6875 28.1771 10 13.4375 6.14583 17.2917Z" fill="#FFFFFF" fill-rule="nonzero" fill-opacity="1" transform="matrix(1.06 0 0 1 558 54)"/><path d="M2.86458 12.4479C2.44792 12.9167 2.5 13.6458 2.96875 14.0625L5.05208 16.1458 8.85417 12.3438 6.77083 10.2604C6.77083 10.2604 6.77083 10.2604 6.77083 10.2604 6.30208 9.79167 5.52083 9.79167 5.10417 10.2604L2.96875 12.3958C2.91667 12.3958 2.91667 12.4479 2.86458 12.4479Z" fill="#FFFFFF" fill-rule="nonzero" fill-opacity="1" transform="matrix(1.06 0 0 1 558 54)"/><path d="M36.4583 31.7708 27.5 31.7708 28.2292 33.8542 36.4583 33.8542Z" fill="#FFFFFF" fill-rule="nonzero" fill-opacity="1" transform="matrix(1.06 0 0 1 558 54)"/><path d="M36.4583 19.2708 18.0208 19.2708 20.1042 21.3542 36.4583 21.3542Z" fill="#FFFFFF" fill-rule="nonzero" fill-opacity="1" transform="matrix(1.06 0 0 1 558 54)"/><path d="M10.4167 23.75 10.4167 43.75C10.4167 44.8958 11.3542 45.8333 12.5 45.8333L40.625 45.8333C41.7708 45.8333 42.7083 44.8958 42.7083 43.75L42.7083 9.375C42.7083 8.22917 41.7708 7.29167 40.625 7.29167L31.7708 7.29167 31.7708 6.25C31.7708 5.10417 30.8333 4.16667 29.6875 4.16667L23.4375 4.16667C22.2917 4.16667 21.3542 5.10417 21.3542 6.25L21.3542 7.29167 12.5 7.29167C11.3542 7.29167 10.4167 8.22917 10.4167 9.375L10.4167 11.6667 10.9896 12.2396 11.0937 12.3438 13.5417 14.7917 13.5417 10.4167 19.2708 10.4167 19.2708 13.5417 33.8542 13.5417 33.8542 10.4167 39.5833 10.4167 39.5833 42.7083 13.5417 42.7083 13.5417 26.875 10.4167 23.75ZM28.125 7.8125C28.125 8.69792 27.4479 9.375 26.5625 9.375 25.6771 9.375 25 8.69792 25 7.8125 25 6.92708 25.6771 6.25 26.5625 6.25 26.9792 6.25 27.3958 6.40625 27.6562 6.71875 27.9688 6.97917 28.125 7.39583 28.125 7.8125Z" fill="#FFFFFF" fill-rule="nonzero" fill-opacity="1" transform="matrix(1.06 0 0 1 558 54)"/><path d="M36.4583 25.5208 24.2708 25.5208 26.3542 27.6042 36.4583 27.6042Z" fill="#FFFFFF" fill-rule="nonzero" fill-opacity="1" transform="matrix(1.06 0 0 1 558 54)"/></g></g></g></g></g></svg>