<svg width="66" height="73" xmlns="http://www.w3.org/2000/svg" xmlns:xlink="http://www.w3.org/1999/xlink" xml:space="preserve" overflow="hidden"><g transform="translate(-666 -48)"><g><g><g><g><path d="M12.8646 8.80208 8.80208 8.80208 8.80208 56.1979 55.5208 56.1979 55.5208 52.1354 12.8646 52.1354 12.8646 8.80208Z" fill="#FFFFFF" fill-rule="nonzero" fill-opacity="1" transform="matrix(1 0 0 1.12308 667 48)"/><path d="M16.9271 8.80208 27.0833 8.80208 27.0833 48.0729 16.9271 48.0729Z" fill="#FFFFFF" fill-rule="nonzero" fill-opacity="1" transform="matrix(1 0 0 1.12308 667 48)"/><path d="M31.1458 22.3438 41.3021 22.3438 41.3021 48.0729 31.1458 48.0729Z" fill="#FFFFFF" fill-rule="nonzero" fill-opacity="1" transform="matrix(1 0 0 1.12308 667 48)"/><path d="M45.3646 34.5312 55.5208 34.5312 55.5208 48.0729 45.3646 48.0729Z" fill="#FFFFFF" fill-rule="nonzero" fill-opacity="1" transform="matrix(1 0 0 1.12308 667 48)"/><path d="M51.1469 24.8625 34.8089 8.52448 32.8995 10.4339 49.2375 26.7719 45.5406 30.4688 54.8438 30.4688 54.8438 21.1656 51.1469 24.8625Z" fill="#FFFFFF" fill-rule="nonzero" fill-opacity="1" transform="matrix(1 0 0 1.12308 667 48)"/></g></g></g></g></g></svg>