<svg width="52" height="52" xmlns="http://www.w3.org/2000/svg" xmlns:xlink="http://www.w3.org/1999/xlink" xml:space="preserve" overflow="hidden"><g transform="translate(-793 -58)"><g><g><g><g><path d="M825.503 78.8156C823.272 78.8156 821.519 77.0094 821.519 74.8313 821.519 72.6531 823.325 70.8469 825.503 70.8469 827.734 70.8469 829.487 72.6531 829.487 74.8313 829.487 77.0094 827.681 78.8156 825.503 78.8156ZM834.481 72.3344C834.269 71.5906 834.003 70.9 833.631 70.2625L834.481 67.7656 832.569 65.8531 830.072 66.7031C829.434 66.3313 828.744 66.0656 828 65.8531L826.831 63.5156 824.175 63.5156 823.006 65.8531C822.263 66.0656 821.572 66.3313 820.934 66.7031L818.438 65.8531 816.525 67.7656 817.375 70.2625C817.003 70.9 816.737 71.5906 816.525 72.3344L814.188 73.5031 814.188 76.1594 816.525 77.3281C816.737 78.0719 817.003 78.7625 817.375 79.4L816.525 81.8969 818.384 83.7562 820.881 82.9062C821.519 83.2781 822.209 83.5437 822.953 83.7562L824.122 86.0938 826.778 86.0938 827.947 83.7562C828.691 83.5437 829.381 83.2781 830.019 82.9062L832.516 83.7562 834.428 81.8969 833.578 79.4C833.95 78.7625 834.269 78.0188 834.481 77.3281L836.819 76.1594 836.819 73.5031 834.481 72.3344Z" fill="#FFFFFF" fill-rule="nonzero" fill-opacity="1"/><path d="M813.497 98.1531C811.266 98.1531 809.513 96.3469 809.513 94.1687 809.513 91.9375 811.319 90.1844 813.497 90.1844 815.728 90.1844 817.481 91.9906 817.481 94.1687 817.481 96.3469 815.728 98.1531 813.497 98.1531L813.497 98.1531ZM821.625 89.6 822.475 87.1031 820.562 85.1906 818.066 86.0406C817.428 85.6687 816.684 85.4031 815.994 85.1906L814.825 82.8531 812.169 82.8531 811 85.1906C810.256 85.4031 809.566 85.6687 808.928 86.0406L806.431 85.1906 804.572 87.05 805.369 89.5469C804.997 90.1844 804.731 90.9281 804.519 91.6188L802.181 92.7875 802.181 95.4437 804.519 96.6125C804.731 97.3562 804.997 98.0469 805.369 98.6844L804.572 101.181 806.431 103.041 808.928 102.244C809.566 102.616 810.256 102.881 811 103.094L812.169 105.431 814.825 105.431 815.994 103.094C816.737 102.881 817.428 102.616 818.066 102.244L820.562 103.094 822.422 101.181 821.625 98.7375C821.997 98.1 822.263 97.4094 822.475 96.6656L824.812 95.4969 824.812 92.8406 822.475 91.6719C822.263 90.9281 821.997 90.2375 821.625 89.6Z" fill="#FFFFFF" fill-rule="nonzero" fill-opacity="1"/></g></g></g></g></g></svg>